<?xml version="1.0" encoding="utf-8"?>
<!-- Generator: Adobe Illustrator 28.2.0, SVG Export Plug-In . SVG Version: 6.00 Build 0)  -->
<svg version="1.1" id="Layer_1" xmlns="http://www.w3.org/2000/svg" xmlns:xlink="http://www.w3.org/1999/xlink" x="0px" y="0px"
	 viewBox="0 0 611.36 137.8" style="enable-background:new 0 0 611.36 137.8;" xml:space="preserve">
<style type="text/css">
	.st0{fill:#FFFFFF;}
</style>
<g id="XMLID_00000095337287892882528590000006784616810437609639_">
	<g>
		<path id="XMLID_00000102541992100923482450000003475246892780311453_" class="st0" d="M0,135.89V3.81h17.9v132.09H0z M12.18,20.17
			V3.81h72.15v16.37H12.18z M12.18,77.84V61.48h68.91v16.37H12.18z"/>
		<path id="XMLID_00000076604734244278045860000015910929323898868097_" class="st0" d="M142.95,137.8
			c-9.01,0-17.13-2.06-24.36-6.19c-7.24-4.12-12.95-9.73-17.14-16.84c-4.19-7.11-6.28-15.17-6.28-24.18
			c0-8.88,2.06-16.87,6.19-23.98c4.12-7.11,9.71-12.73,16.75-16.85c7.04-4.12,14.94-6.19,23.7-6.19c8.37,0,15.76,1.9,22.18,5.71
			c6.4,3.82,11.42,9.08,15.03,15.81s5.43,14.34,5.43,22.84c0,1.28-0.07,2.64-0.19,4.1c-0.13,1.46-0.38,3.13-0.76,5.04h-76.33V82.79
			h67.2l-6.29,5.52c0-6.09-1.07-11.26-3.24-15.51c-2.16-4.24-5.21-7.54-9.13-9.9c-3.93-2.34-8.69-3.51-14.27-3.51
			c-5.84,0-10.98,1.26-15.41,3.81c-4.44,2.54-7.87,6.09-10.29,10.66c-2.41,4.57-3.62,9.96-3.62,16.18c0,6.35,1.28,11.9,3.81,16.66
			c2.54,4.76,6.16,8.44,10.86,11.04c4.69,2.61,10.09,3.91,16.18,3.91c5.07,0,9.74-0.88,13.99-2.66c4.24-1.78,7.89-4.44,10.94-7.99
			l11.05,11.23c-4.32,5.07-9.62,8.94-15.9,11.61C156.75,136.47,150.06,137.8,142.95,137.8z"/>
		<path id="XMLID_00000052079327749794400730000003441831294630034085_" class="st0" d="M241.35,137.8
			c-8.37,0-15.86-2.06-22.46-6.19c-6.6-4.12-11.84-9.73-15.71-16.84c-3.87-7.11-5.81-15.1-5.81-23.99c0-8.88,1.94-16.87,5.81-23.98
			c3.86-7.11,9.1-12.75,15.71-16.95c6.59-4.19,14.08-6.28,22.46-6.28c6.73,0,12.82,1.43,18.27,4.29c5.45,2.85,9.86,6.78,13.23,11.8
			c3.36,5.01,5.24,10.82,5.62,17.42v27.21c-0.38,6.48-2.23,12.25-5.53,17.33c-3.29,5.07-7.68,9.03-13.13,11.89
			C254.36,136.38,248.2,137.8,241.35,137.8z M244.21,121.62c5.71,0,10.69-1.33,14.94-4c4.24-2.66,7.58-6.31,9.99-10.95
			c2.42-4.63,3.62-9.93,3.62-15.9c0-6.21-1.23-11.61-3.71-16.18s-5.84-8.18-10.09-10.85c-4.25-2.66-9.24-4-14.94-4
			s-10.72,1.33-15.03,4c-4.32,2.66-7.71,6.31-10.19,10.94c-2.47,4.63-3.72,9.94-3.72,15.9c0,6.09,1.24,11.45,3.72,16.09
			c2.47,4.63,5.9,8.28,10.28,10.95C233.45,120.29,238.5,121.62,244.21,121.62z M288.94,135.89h-17.33v-24.36l3.25-22.09l-3.25-21.88
			V0h17.33V135.89z"/>
		<path id="XMLID_00000176039951114802086840000000116097662984515502_" class="st0" d="M313.86,135.89V45.48h17.14v90.41H313.86z
			 M330.99,84.31l-6.48-2.85c0-11.54,2.66-20.74,8-27.59c5.33-6.86,13-10.29,23.03-10.29c4.57,0,8.69,0.79,12.37,2.38
			c3.68,1.59,7.11,4.22,10.28,7.9l-11.23,11.61c-1.9-2.03-4-3.49-6.28-4.38c-2.28-0.9-4.95-1.33-7.99-1.33
			c-6.35,0-11.55,2.03-15.6,6.09C333.02,69.92,330.99,76.06,330.99,84.31z"/>
		<path id="XMLID_00000053506804723634150600000006091447098863361926_" class="st0" d="M398.94,27.4c-3.17,0-5.78-1.04-7.8-3.13
			c-2.03-2.1-3.04-4.74-3.04-7.9c0-3.04,1.02-5.62,3.04-7.71c2.03-2.09,4.63-3.13,7.8-3.13c3.18,0,5.78,1.04,7.81,3.13
			c2.03,2.09,3.04,4.67,3.04,7.71c0,3.17-1.02,5.8-3.04,7.9C404.72,26.36,402.12,27.4,398.94,27.4z M390.38,135.89V45.48h17.14
			v90.41H390.38z"/>
		<path id="XMLID_00000107587606650477750610000009616172600141939074_" class="st0" d="M423.49,135.89l37.31-50.25l9.71,12.56
			l-26.84,37.69H423.49z M492.2,135.89L464.03,96.3l-3.24-3.04l-35.6-47.78h20.74l25.7,35.22l3.24,2.66l38.07,52.53H492.2z
			 M476.21,93.07l-9.9-12.18l24.93-35.41h19.99L476.21,93.07z"/>
		<path id="XMLID_00000134231787673221619390000013085375637405877667_" class="st0" d="M570.24,84.69
			c-7.99,0-15.07-1.84-21.22-5.52s-10.98-8.69-14.46-15.03c-3.49-6.35-5.24-13.39-5.24-21.13c0-7.74,1.71-14.72,5.14-20.93
			s8.22-11.14,14.37-14.75c6.16-3.62,13.23-5.42,21.22-5.42c8.12,0,15.26,1.84,21.41,5.52c6.16,3.68,11,8.63,14.56,14.84
			c3.55,6.21,5.33,13.2,5.33,20.93c0,7.75-1.78,14.75-5.33,21.03c-3.56,6.28-8.38,11.26-14.47,14.94
			C585.47,82.86,578.36,84.69,570.24,84.69z M570.05,79.17c6.97,0,13.13-1.59,18.46-4.76c5.33-3.17,9.49-7.49,12.47-12.94
			c2.98-5.46,4.48-11.62,4.48-18.47c0-6.72-1.5-12.75-4.48-18.08s-7.14-9.58-12.47-12.75c-5.33-3.17-11.48-4.76-18.46-4.76
			c-6.85,0-12.92,1.59-18.18,4.76s-9.39,7.42-12.37,12.75c-2.99,5.33-4.48,11.36-4.48,18.08c0,6.85,1.49,13.01,4.48,18.47
			c2.98,5.45,7.11,9.77,12.37,12.94S563.2,79.17,570.05,79.17z M556.54,64.33V20.74h6.66v43.59H556.54z M560.35,45.48v-5.71h11.99
			c2.28,0,4.06-0.59,5.33-1.8c1.26-1.21,1.9-2.76,1.9-4.67s-0.64-3.48-1.9-4.76c-1.26-1.26-3.04-1.9-5.33-1.9h-11.99v-5.9h12.18
			c4.06,0,7.35,1.14,9.9,3.43c2.54,2.28,3.81,5.27,3.81,8.94c0,3.68-1.26,6.66-3.81,8.94c-2.54,2.28-5.83,3.43-9.9,3.43H560.35z
			 M581.28,64.33l-15.79-19.61h7.61l16.37,19.61H581.28z"/>
	</g>
</g>
</svg>
